<?xml version="1.0" encoding="utf-8"?>
<!-- Generator: Adobe Illustrator 16.0.0, SVG Export Plug-In . SVG Version: 6.00 Build 0)  -->
<!DOCTYPE svg PUBLIC "-//W3C//DTD SVG 1.1//EN" "http://www.w3.org/Graphics/SVG/1.1/DTD/svg11.dtd">
<svg version="1.1" id="Layer_1" xmlns="http://www.w3.org/2000/svg" xmlns:xlink="http://www.w3.org/1999/xlink" x="0px" y="0px"
	 width="100px" height="50px" viewBox="0 0 100 50" enable-background="new 0 0 100 50" xml:space="preserve">
<path fill="#FFFFFF" stroke="#A5A5A5" stroke-width="3" stroke-miterlimit="10" d="M98.5,36.94c0,6.18-5.035,11.56-11.614,11.56
	H13.414C6.834,48.5,1.5,43.12,1.5,36.94V12.692C1.5,6.511,6.834,1.5,13.414,1.5h73.472C93.465,1.5,98.5,6.511,98.5,12.692V36.94z"/>
<g>
	<g>
		<path fill="#969493" d="M43.687,20.412c-2.904-2.127-3.825-6.032,0.242-7.577c1.685-0.64,3.528-0.809,5.311-0.872
			c5.158-0.182,11.449,4.107,6.642,9.538c-2.423,2.737-6.518,3.441-9.136,5.897c-2.608,2.446-1.753,4.947-0.72,8.075
			c0.604,1.828,3.501,1.045,2.893-0.797c-1.598-4.837,1.655-6.18,5.27-8.285c2.421-1.41,4.537-3.021,5.707-5.621
			c2.146-4.769-0.994-9.269-5.299-11.016c-3.825-1.552-10.715-1.239-14.014,1.467c-4.389,3.599-2.431,8.837,1.591,11.782
			C43.736,24.147,45.23,21.542,43.687,20.412L43.687,20.412z"/>
	</g>
</g>
<ellipse fill="#969493" cx="49.264" cy="39.43" rx="1.736" ry="1.843"/>
</svg>
