<?xml version="1.0" encoding="utf-8"?>
<!-- Generator: Adobe Illustrator 16.0.0, SVG Export Plug-In . SVG Version: 6.00 Build 0)  -->
<!DOCTYPE svg PUBLIC "-//W3C//DTD SVG 1.1//EN" "http://www.w3.org/Graphics/SVG/1.1/DTD/svg11.dtd">
<svg version="1.1" id="Layer_1" xmlns="http://www.w3.org/2000/svg" xmlns:xlink="http://www.w3.org/1999/xlink" x="0px" y="0px"
	 width="300px" height="300px" viewBox="0 0 300 300" enable-background="new 0 0 300 300" xml:space="preserve">
<g>
	<path fill-rule="evenodd" clip-rule="evenodd" fill="#CD8032" d="M94.188,120.813c3.274,0,4.333,0.103,4.342,3.328
		c0.031,11.458,0.022,22.917,0.02,34.375c-0.004,19.577,0.026,39.155-0.069,58.733c-0.013,2.621,0.764,3.996,3.297,5.061
		c4.76,2,9.293,4.532,13.937,6.813c1.014,0.496,2.094,0.859,3.933,1.604c0-3.257-0.003-5.911,0.001-8.563
		c0.033-20.385,0.114-40.771,0.088-61.156c-0.024-18.311-0.166-36.623-0.256-54.934c0-0.091,0-0.181,0-0.271
		c-0.012-5.978-0.012-5.984-6.126-6.419c-0.898-0.063-1.803-0.058-2.705-0.057c-21.381,0.026-42.764,0.03-64.145,0.126
		c-2.212,0.01-3.07-1.176-3.61-2.916c-1.119-3.605-2.182-7.227-3.262-10.843c-1.565-5.237-3.149-10.469-4.681-15.715
		c-1.42-4.863-2.733-9.757-4.192-14.608c-0.644-2.139-1.627-4.175-2.28-6.313c-0.538-1.761-0.815-3.602-1.298-5.822
		c2.907,0,5.246,0,7.584,0c24.721,0,49.441,0,74.162,0.002c4.878,0,5.305,0.447,5.267,5.437c-0.02,2.523,0.006,5.049-0.083,7.57
		c-0.119,3.303-0.754,3.884-4.051,3.886c-19.037,0.007-38.073,0.006-57.11,0.013c-4.017,0-4.107,0.308-2.734,4.185
		c1.83,5.164,3.504,10.387,5.09,15.632c0.694,2.297,1.759,3.318,4.366,3.315c14.514-0.02,29.029,0.223,43.543,0.257
		c9.471,0.021,18.94-0.186,28.411-0.239c4.703-0.026,4.707,0.025,4.708,4.613c0.002,54.674,0.003,109.348,0.005,164.021
		c0,0.542,0.017,1.084-0.006,1.625c-0.099,2.322-0.778,2.764-2.825,1.721c-5.934-3.026-11.853-6.084-17.771-9.141
		c-10.012-5.171-19.989-10.411-30.05-15.482c-2.398-1.209-3.32-2.674-3.312-5.436c0.101-32.299,0.067-64.598,0.058-96.897
		c0-1.531,0.02-3.079-0.18-4.59c-0.286-2.167,0.729-3.093,2.711-3.036"/>
	<path fill-rule="evenodd" clip-rule="evenodd" fill="#CD8032" d="M161.223,256.787c-0.223,0-0.443,0.001-0.665,0.001
		c0-1.022,0-2.046,0-3.068c0.001-8.028-0.041-16.058,0.008-24.086c0.278-44.958,0.585-89.917,0.859-134.876
		c0.019-2.973-0.156-5.947-0.222-8.921c-0.038-1.725,0.445-2.341,2.536-2.323c10.901,0.093,21.805-0.195,32.708-0.206
		c11.806-0.012,23.612,0.115,35.418,0.23c2.462,0.024,4.934,0.444,7.378,0.296c0.877-0.053,2.08-1.074,2.452-1.945
		c1.033-2.42,1.684-5.004,2.532-7.506c1.297-3.82,2.647-7.621,3.938-11.443c0.213-0.632,0.235-1.329,0.378-2.194
		c-1.963-0.163-3.646-0.398-5.332-0.428c-10.999-0.191-21.998-0.418-32.999-0.473c-7.569-0.038-15.14,0.205-22.712,0.281
		c-3.58,0.036-4.034-0.448-4.132-4.045c-0.093-3.426-0.083-6.858-0.297-10.276c-0.121-1.919,0.579-2.625,2.441-2.592
		c3.517,0.063,7.035,0.022,10.554,0.023c23.093,0,46.188-0.012,69.28,0.021c1.924,0.002,3.847,0.31,5.739,0.473
		c-2.942,9.687-5.8,19.126-8.675,28.56c-2.514,8.247-5.11,16.469-7.526,24.744c-0.583,1.998-1.505,2.679-3.582,2.673
		c-23.635-0.069-47.27-0.042-70.904-0.071c-1.59-0.002-2.503-0.148-2.483,2.206c0.163,18.843,0.132,37.688,0.081,56.531
		c-0.046,17.316-0.235,34.633-0.27,51.949c-0.012,6.063,0.237,12.128,0.406,18.189c0.019,0.668,0.291,1.329,0.477,2.125
		c6.102-2.843,11.791-5.488,17.477-8.145c2.222-1.037,2.934-2.75,2.927-5.221c-0.082-30.58-0.066-61.161-0.078-91.741
		c-0.002-4.585-0.007-4.593,4.6-4.608c2.976-0.01,5.956,0.099,8.929-0.015c2.205-0.085,2.982,0.702,2.964,2.971
		c-0.095,11.456-0.042,22.913-0.042,34.369c0,22.462-0.021,44.925,0.037,67.386c0.005,2.006-0.408,3.266-2.375,4.254
		c-7.534,3.781-14.959,7.783-22.435,11.684c-5.111,2.666-10.228,5.322-15.36,7.945c-4.308,2.202-8.642,4.35-13.334,6.707"/>
</g>
</svg>
