<?xml version="1.0" encoding="utf-8"?>
<!-- Generator: Adobe Illustrator 16.0.0, SVG Export Plug-In . SVG Version: 6.00 Build 0)  -->
<!DOCTYPE svg PUBLIC "-//W3C//DTD SVG 1.1//EN" "http://www.w3.org/Graphics/SVG/1.1/DTD/svg11.dtd">
<svg version="1.1" id="Layer_1" xmlns="http://www.w3.org/2000/svg" xmlns:xlink="http://www.w3.org/1999/xlink" x="0px" y="0px"
	 width="109.75px" height="105.75px" viewBox="0 0 109.75 105.75" enable-background="new 0 0 109.75 105.75" xml:space="preserve">
<g>
	<ellipse fill="#A39F9F" cx="54.083" cy="83.731" rx="41.833" ry="12.068"/>
	<polygon fill="#33CE00" points="39.916,83.172 51.868,23.607 52.249,21.707 68.583,83.172 	"/>
	<path fill="#33CE00" d="M90.583,77.172c0,6.627-5.373,12-12,12H28.25c-6.627,0-12-5.373-12-12V56.007c0-6.627,5.373-12,12-12
		h50.333c6.627,0,12,5.373,12,12V77.172z"/>
	<path fill="#33CE00" d="M51.583,21.976c0,0,41.292-2.21,42.358,16.947c1.064,19.157-7.727-0.921-7.727-0.921l-4.262-5.208
		l-3.73,5.393l-0.533-8.658l-6.127,5.023l-5.86-9.229l-2.665,5.435l-4.795-5.435l-4.529,5.918L51.583,21.976z"/>
	<path fill="#33CE00" d="M52.583,21.976c0,0-35.94-2.21-36.868,16.947c-0.927,19.157,6.724-0.921,6.724-0.921l3.71-5.208
		l3.247,5.393l0.464-8.658l5.333,5.023l5.101-9.229l2.319,5.435l4.173-5.435l3.942,5.918L52.583,21.976z"/>
	<path fill="#33CE00" d="M55.228,22.43c0,0-24.724-19.258-35.334-5.072c-10.609,14.186,5.319,2.583,5.319,2.583l5.373-2.167
		l-0.461,5.708l4.827-6.39l1.232,6.446l8.461-4.558l-1.151,5.287l5.824-2.113l-0.234,6.449L55.228,22.43z"/>
	<path fill="#33CE00" d="M48.773,23.672c0,0,24.84-22.088,35.374-10.217c10.533,11.87-5.334,3.268-5.334,3.268l-5.363-1.24
		l0.43,5.357l-4.793-5.339l-1.268,6.317l-8.439-3.043l1.122,4.852l-5.814-1.12l0.197,6.098L48.773,23.672z"/>
	<path fill="#FFFFFF" d="M82.318,73.721c0,6.627-5.373,12-12,12H36.846c-6.627,0-12-5.373-12-12V59.459c0-6.628,5.373-12,12-12
		h33.472c6.627,0,12,5.372,12,12V73.721z"/>
	<polyline fill="#1145EA" points="45.25,52.625 31.5,66.34 45.25,79.375 39.5,66 	"/>
	<polyline fill="#1145EA" points="62.697,52.625 74.469,66.34 62.697,79.375 67.62,66 	"/>
	<polygon fill="#1145EA" points="50.75,82.006 47.416,82.006 54.416,50.495 57.75,50.495 	"/>
</g>
</svg>
