<?xml version="1.0" encoding="utf-8"?>
<!-- Generator: Adobe Illustrator 16.0.0, SVG Export Plug-In . SVG Version: 6.00 Build 0)  -->
<!DOCTYPE svg PUBLIC "-//W3C//DTD SVG 1.1//EN" "http://www.w3.org/Graphics/SVG/1.1/DTD/svg11.dtd">
<svg version="1.1" id="Layer_1" xmlns="http://www.w3.org/2000/svg" xmlns:xlink="http://www.w3.org/1999/xlink" x="0px" y="0px"
	 width="800px" height="800px" viewBox="0 0 800 800" enable-background="new 0 0 800 800" xml:space="preserve">
<title>Facebook-color</title>
<desc>Created with Sketch.</desc>
<g id="Icons">
	<g id="Color-" transform="translate(-200.000000, -160.000000)">
		<path id="Facebook" d="M627.306,960H244.154C219.761,960,200,940.227,200,915.844v-711.69C200,179.764,219.764,160,244.154,160
			H955.85c24.383,0,44.15,19.764,44.15,44.153v711.69c0,24.386-19.771,44.156-44.15,44.156H751.988V650.196h103.987l15.57-120.736
			H751.988v-77.083c0-34.956,9.707-58.777,59.833-58.777l63.934-0.028V285.585c-11.057-1.472-49.009-4.759-93.162-4.759
			c-92.179,0-155.287,56.266-155.287,159.594v89.04H523.052v120.736h104.254V960L627.306,960z"/>
	</g>
</g>
</svg>
