<?xml version="1.0" encoding="utf-8"?>
<!-- Generator: Adobe Illustrator 16.0.0, SVG Export Plug-In . SVG Version: 6.00 Build 0)  -->
<!DOCTYPE svg PUBLIC "-//W3C//DTD SVG 1.1//EN" "http://www.w3.org/Graphics/SVG/1.1/DTD/svg11.dtd">
<svg version="1.1" id="Layer_1" xmlns="http://www.w3.org/2000/svg" xmlns:xlink="http://www.w3.org/1999/xlink" x="0px" y="0px"
	 width="800px" height="800px" viewBox="0 0 800 800" enable-background="new 0 0 800 800" xml:space="preserve">
<g>
	<path d="M171.429,0h457.143C723.249,0,800,76.751,800,171.429v457.143C800,723.249,723.249,800,628.571,800H171.429
		C76.751,800,0,723.249,0,628.571V171.429C0,76.751,76.751,0,171.429,0z"/>
	<path fill="none" stroke="#FFFFFF" stroke-width="40" stroke-miterlimit="10" d="M400,542.857
		c78.897,0,142.857-63.96,142.857-142.857S478.897,257.143,400,257.143S257.143,321.103,257.143,400S321.103,542.857,400,542.857z"
		/>
	<path fill="none" stroke="#FFFFFF" stroke-width="40" stroke-miterlimit="10" d="M114.286,388.571
		c0-96.009,0-144.015,18.685-180.685c16.436-32.256,42.66-58.481,74.917-74.917c36.669-18.685,84.676-18.685,180.685-18.685h22.857
		c96.009,0,144.015,0,180.683,18.685c32.258,16.436,58.482,42.66,74.919,74.917c18.684,36.669,18.684,84.677,18.684,180.685v22.857
		c0,96.009,0,144.016-18.685,180.683c-16.436,32.258-42.661,58.482-74.919,74.919c-36.667,18.684-84.673,18.684-180.682,18.684
		h-22.857c-96.009,0-144.015,0-180.685-18.685c-32.256-16.436-58.481-42.661-74.917-74.919
		c-18.685-36.666-18.685-84.673-18.685-180.682V388.571z"/>
	<ellipse fill="#FFFFFF" cx="567.052" cy="227.03" rx="18.854" ry="18.286"/>
</g>
</svg>
