<?xml version="1.0" encoding="iso-8859-1"?>
<!-- Uploaded to: SVG Repo, www.svgrepo.com, Generator: SVG Repo Mixer Tools -->
<svg height="800px" width="800px" version="1.1" id="Layer_1" xmlns="http://www.w3.org/2000/svg" xmlns:xlink="http://www.w3.org/1999/xlink" 
	 viewBox="0 0 512 512" xml:space="preserve">
<polygon style="fill:#BF7447;" points="149.579,330.077 204.047,503.83 307.951,503.83 362.419,330.077 "/>
<polygon style="fill:#F9F0B5;" points="428.848,348.313 428.848,503.83 307.951,503.83 307.951,340.97 204.047,340.97 
	204.047,503.83 83.15,503.83 83.15,348.313 255.999,231.74 "/>
<polygon style="fill:#FFDD77;" points="428.848,304.738 428.848,348.313 255.999,264.421 83.15,348.313 83.15,304.738 
	255.999,220.846 "/>
<path style="fill:#ED2F49;" d="M297.289,8.17c-2.339,0-4.632,0.175-6.873,0.507l-34.417,179.616l78.986-104.4
	c5.991-7.919,9.548-17.782,9.548-28.478C344.533,29.322,323.381,8.17,297.289,8.17z"/>
<path style="fill:#FE7074;" d="M221.582,8.677c-2.241-0.331-4.534-0.507-6.873-0.507c-26.092,0-47.245,21.152-47.245,47.245
	c0,10.695,3.556,20.56,9.548,28.478l78.986,104.4L221.582,8.677z"/>
<path style="fill:#FF455E;" d="M319.238,55.415c0-23.75-12.519-43.4-28.822-46.738c-15.023,2.219-27.599,11.609-34.416,24.59
	c-6.817-12.981-19.393-22.371-34.416-24.591c-16.302,3.338-28.822,22.988-28.822,46.738c0,10.695,2.54,20.56,6.82,28.478
	l56.418,104.401l56.419-104.4C316.698,75.974,319.238,66.11,319.238,55.415z"/>
<path style="fill:#FF7A2F;" d="M446.093,321.283c-1.197,0-2.412-0.265-3.562-0.822l-186.531-90.538L69.468,320.461
	c-4.059,1.972-8.948,0.277-10.918-3.782c-1.971-4.06-0.277-8.947,3.782-10.918l190.1-92.27c2.253-1.094,4.883-1.094,7.136,0
	l190.1,92.27c4.058,1.971,5.752,6.858,3.782,10.918C452.036,319.588,449.124,321.283,446.093,321.283z"/>
<g>
	<path style="fill:#1D2328;" d="M249.484,193.222c1.545,2.041,3.957,3.241,6.515,3.241s4.971-1.199,6.515-3.241l78.985-104.4
		c7.329-9.686,11.203-21.238,11.203-33.407C352.703,24.859,327.845,0,297.288,0c-15.98,0-30.99,6.911-41.388,18.587
		C245.815,7.193,231.086,0,214.71,0c-30.557,0-55.415,24.859-55.415,55.415c0,12.17,3.874,23.722,11.202,33.407L249.484,193.222z
		 M214.71,16.34c21.322,0,38.669,17.347,38.669,38.67c0,4.512,3.657,8.17,8.17,8.17c4.513,0,8.17-3.658,8.17-8.17
		c0-7.763-1.616-15.154-4.53-21.858c7.261-10.458,19.236-16.812,32.098-16.812c21.545,0,39.074,17.529,39.074,39.074
		c0,8.582-2.729,16.724-7.894,23.549l-72.47,95.789l-72.471-95.79c-5.164-6.824-7.892-14.966-7.892-23.548
		C175.636,33.869,193.164,16.34,214.71,16.34z"/>
	<path style="fill:#1D2328;" d="M449.667,305.761l-190.1-92.27c-2.253-1.094-4.883-1.094-7.136,0l-190.099,92.27
		c-4.059,1.971-5.752,6.858-3.782,10.918c1.971,4.059,6.86,5.754,10.918,3.782l5.51-2.674V503.83c0,4.512,3.657,8.17,8.17,8.17
		H204.05c4.513,0,8.17-3.658,8.17-8.17V349.145h87.557v24.511c0,4.512,3.657,8.17,8.17,8.17c4.513,0,8.17-3.658,8.17-8.17v-32.681
		c0-4.512-3.657-8.17-8.17-8.17H204.05c-4.513,0-8.17,3.658-8.17,8.17V495.66H91.317V309.856l164.682-79.933l164.682,79.933V495.66
		H316.119v-89.323c0-4.512-3.657-8.17-8.17-8.17c-4.513,0-8.17,3.658-8.17,8.17v97.494c0,4.512,3.657,8.17,8.17,8.17h120.903
		c4.512,0,8.17-3.658,8.17-8.17V317.786l5.51,2.674c1.15,0.558,2.365,0.822,3.562,0.822c3.032,0,5.944-1.695,7.356-4.605
		C455.419,312.618,453.726,307.73,449.667,305.761z"/>
</g>
</svg>