<?xml version="1.0" encoding="utf-8"?>
<!-- Generator: Adobe Illustrator 16.0.0, SVG Export Plug-In . SVG Version: 6.00 Build 0)  -->
<!DOCTYPE svg PUBLIC "-//W3C//DTD SVG 1.1//EN" "http://www.w3.org/Graphics/SVG/1.1/DTD/svg11.dtd">
<svg version="1.1" id="Capa_1" xmlns="http://www.w3.org/2000/svg" xmlns:xlink="http://www.w3.org/1999/xlink" x="0px" y="0px"
	 width="800px" height="800px" viewBox="0 0 800 800" enable-background="new 0 0 800 800" xml:space="preserve">
<g>
	<path d="M700,149.955c0,4.97-4.029,9-9,9H109c-4.97,0-9-4.03-9-9V109c0-4.97,4.03-9,9-9h582c4.971,0,9,4.03,9,9V149.955z"/>
	<path d="M700,415.227c0,4.972-4.029,9-9,9H109c-4.97,0-9-4.028-9-9v-40.954c0-4.971,4.03-9,9-9h582c4.971,0,9,4.029,9,9V415.227z"
		/>
	<path d="M700,691c0,4.971-4.029,9-9,9H109c-4.97,0-9-4.029-9-9v-40.955c0-4.971,4.03-9,9-9h582c4.971,0,9,4.029,9,9V691z"/>
</g>
</svg>
